<svg width="40" height="40" viewBox="0 0 40 40" fill="none" xmlns="http://www.w3.org/2000/svg">
<path d="M18.3333 25H21.6667V28.3334H18.3333V25ZM18.3333 11.6667H21.6667V21.6667H18.3333V11.6667ZM20 3.33337C10.7833 3.33337 3.33333 10.8334 3.33333 20C3.33333 24.4203 5.08928 28.6595 8.21488 31.7852C9.76252 33.3328 11.5998 34.5605 13.6219 35.398C15.644 36.2356 17.8113 36.6667 20 36.6667C24.4203 36.6667 28.6595 34.9108 31.7851 31.7852C34.9107 28.6595 36.6667 24.4203 36.6667 20C36.6667 17.8113 36.2356 15.6441 35.398 13.622C34.5604 11.5999 33.3328 9.76257 31.7851 8.21493C30.2375 6.66728 28.4001 5.43963 26.3781 4.60205C24.356 3.76447 22.1887 3.33337 20 3.33337ZM20 33.3334C16.4638 33.3334 13.0724 31.9286 10.5719 29.4281C8.07142 26.9276 6.66666 23.5363 6.66666 20C6.66666 16.4638 8.07142 13.0724 10.5719 10.572C13.0724 8.07147 16.4638 6.66671 20 6.66671C23.5362 6.66671 26.9276 8.07147 29.4281 10.572C31.9286 13.0724 33.3333 16.4638 33.3333 20C33.3333 23.5363 31.9286 26.9276 29.4281 29.4281C26.9276 31.9286 23.5362 33.3334 20 33.3334Z" fill="black"/>
</svg>
